HIERARCHY
ROOT Hips
{
  OFFSET -31.5692 30.0904 122.763
  CHANNELS 6 Xposition Yposition Zposition Zrotation Xrotation Yrotation
  JOINT LeftUpLeg
  {
    OFFSET 8.64259 1.95398 -2.38835
    CHANNELS 3 Zrotation Xrotation Yrotation
    JOINT LeftLeg
    {
      OFFSET 43.7702 0 0
      CHANNELS 3 Zrotation Xrotation Yrotation
      JOINT LeftFoot
      {
        OFFSET 40.6238 0 0
        CHANNELS 3 Zrotation Xrotation Yrotation
        JOINT LeftToeBase
        {
          OFFSET 12.7242 0 0
          CHANNELS 3 Zrotation Xrotation Yrotation
          End Site
          {
            OFFSET 0 0 0
          }
        }
      }
    }
  }
  JOINT RightUpLeg
  {
    OFFSET -8.2249 1.95398 -2.59336
    CHANNELS 3 Zrotation Xrotation Yrotation
    JOINT RightLeg
    {
      OFFSET 43.5653 0 0
      CHANNELS 3 Zrotation Xrotation Yrotation
      JOINT RightFoot
      {
        OFFSET 40.6238 0 0
        CHANNELS 3 Zrotation Xrotation Yrotation
        JOINT RightToeBase
        {
          OFFSET 12.7242 0 0
          CHANNELS 3 Zrotation Xrotation Yrotation
          End Site
          {
            OFFSET 0 0 0
          }
        }
      }
    }
  }
  JOINT Spine
  {
    OFFSET 0.165834 0.87714 6.61349
    CHANNELS 3 Zrotation Xrotation Yrotation
    JOINT Spine1
    {
      OFFSET 7.38963 1.71661e-005 0
      CHANNELS 3 Zrotation Xrotation Yrotation
      JOINT Spine2
      {
        OFFSET 11.9445 1.14441e-005 0
        CHANNELS 3 Zrotation Xrotation Yrotation
        JOINT Spine3
        {
          OFFSET 14.7254 4.19617e-005 0
          CHANNELS 3 Zrotation Xrotation Yrotation
          JOINT Spine4
          {
            OFFSET 10.9679 0 0
            CHANNELS 3 Zrotation Xrotation Yrotation
            JOINT RightShoulder
            {
              OFFSET 2.46616 -1.6653 3.69651
              CHANNELS 3 Zrotation Xrotation Yrotation
              JOINT RightArm
              {
                OFFSET 13.0012 0 0
                CHANNELS 3 Zrotation Xrotation Yrotation
                JOINT RightForeArm
                {
                  OFFSET 28.7848 1.62311e-005 0
                  CHANNELS 3 Zrotation Xrotation Yrotation
                  JOINT RightHand
                  {
                    OFFSET 26.5688 1.62095e-005 0
                    CHANNELS 3 Zrotation Xrotation Yrotation
                    End Site
                    {
                      OFFSET 0 0 0
                    }
                  }
                }
              }
            }
            JOINT LeftShoulder
            {
              OFFSET 2.38034 -1.29275 -3.7523
              CHANNELS 3 Zrotation Xrotation Yrotation
              JOINT LeftArm
              {
                OFFSET 16.3182 6.07031e-005 0
                CHANNELS 3 Zrotation Xrotation Yrotation
                JOINT LeftForeArm
                {
                  OFFSET 27.0901 0 0
                  CHANNELS 3 Zrotation Xrotation Yrotation
                  JOINT LeftHand
                  {
                    OFFSET 24.5451 1.51738e-005 0
                    CHANNELS 3 Zrotation Xrotation Yrotation
                    End Site
                    {
                      OFFSET 0 0 0
                    }
                  }
                }
              }
            }
            JOINT Neck
            {
              OFFSET 5.0226 -0.0266342 0
              CHANNELS 3 Zrotation Xrotation Yrotation
              JOINT Head
              {
                OFFSET 6.69364 2.86102e-005 0
                CHANNELS 3 Zrotation Xrotation Yrotation
                End Site
                {
                  OFFSET 0 0 0
                }
              }
            }
          }
        }
      }
    }
  }
}
MOTION
Frames:	18
Frame Time:	0.0416667
-3.0598 99.6502 94.7816 -138.478 -81.2828 -139.44 -176.717 0.20103 82.7304 -23.6194 17.8195 0.557736 74.7631 10.0458 1.78414 12.4466 -11.1344 5.55779 177.176 17.2463 88.9634 -52.2655 -3.52543 -4.64964 72.2336 -7.28331 -5.0739 18.811 3.01691 5.61336 0.410702 8.04561 -89.9533 10.7828 0.839413 0.0150804 -0.887834 0.839264 -0.021892 -23.425 0.796063 0.266674 -3.41236 0.796075 0.266675 89.2529 -28.3244 -108.93 39.9659 -5.6393 -0.840662 7.84821 -28.6258 -9.64549 -23.5461 -0.728361 -6.34025 -86.6662 -48.4405 83.4771 -9.73568 -0.523126 -26.8864 -0.811541 32.3625 -0.00146218 9.44394 -0.39338 -14.9602 -7.69818 0.967629 -4.42065 -2.48639 1.26463 -2.56005 
-4.89635 99.5367 100.389 -161.18 -82.9909 -160.747 -175.053 -4.26664 85.9504 -23.0151 22.9759 1.36585 77.6523 11.9795 2.00408 10.8217 -12.0379 5.43209 177.989 19.1327 90.7834 -35.1074 -4.64402 -2.94917 68.371 -5.41715 -3.37723 20.48 2.90342 3.55017 -0.0939036 8.06895 -90.1623 10.7354 -0.261816 -0.298479 -0.935558 -0.274702 -0.286671 -23.4706 -0.160007 -0.363369 -3.45792 -0.160006 -0.363364 89.3854 -28.9345 -108.408 39.6325 -5.28871 2.76013 8.30247 -26.827 -9.59518 -22.6933 -0.510625 -7.25368 -87.4618 -44.009 81.4356 -10.6426 -2.37703 -32.5509 0.243668 28.7476 -0.28316 12.3447 -1.41263 -17.9282 -7.70464 1.13895 -6.72173 -2.57106 1.62577 0.00175636 
-6.46874 98.6288 106.794 -177.096 -82.8809 -176.009 -172.27 -9.5869 89.7038 -21.7362 27.0955 0.888298 80.7045 13.9716 0.771244 13.8138 -11.5459 7.82078 177.673 17.2933 92.0532 -15.0704 -8.21789 -0.915785 63.1842 -3.49309 -1.94392 23.4279 1.404 4.35178 -0.431568 8.12494 -90.2729 10.6218 -0.985035 -0.453566 -1.04887 -1.00404 -0.409781 -23.5856 -0.803189 -0.728655 -3.57292 -0.803184 -0.728651 89.3473 -30.1371 -107.994 38.5236 -3.99632 5.37747 8.11242 -28.0243 -9.25476 -22.838 -0.499793 -7.58935 -88.1445 -42.6611 80.0522 -10.7594 -5.0278 -37.4191 2.07771 28.0958 -2.60388 17.4117 -2.97171 -21.1971 -7.33607 1.33335 -8.48791 -3.05849 1.98491 1.70106 
-8.11884 96.9495 113.835 -177.871 -82.3538 -176.041 -168.679 -15.5296 93.9698 -19.7978 29.6341 -0.0525211 84.1567 16.7613 0.503659 14.9845 -10.879 7.93647 178.654 17.6014 94.2862 -7.62735 -8.31194 -0.222673 62.9446 -3.31552 -1.88832 24.1886 1.07576 4.35236 -0.59073 8.16533 -90.3401 10.5398 -1.3328 -0.556639 -1.13057 -1.356 -0.497433 -23.6688 -1.1039 -0.931483 -3.65618 -1.1039 -0.931496 89.2118 -32.28 -107.427 37.1805 -3.7341 6.60953 8.60604 -28.3715 -8.61715 -21.6138 -0.565681 -7.32963 -88.2424 -42.7531 79.9107 -13.6279 -7.59008 -40.6445 5.41341 28.6513 -5.96982 19.5653 -4.13816 -24.4357 -7.32815 1.76344 -9.69847 -3.16502 2.50759 2.77786 
-9.82303 95.1814 121.773 -179.914 -81.9296 -176.71 -164.507 -20.6724 99.3899 -19.2243 31.0505 -0.341305 86.8225 18.8266 0.0832605 14.5189 -11.0268 7.67521 179.379 18.4427 97.0779 -12.984 -8.56638 0.292212 63.0138 -2.74657 -1.50638 24.5005 1.20811 3.2579 -0.763768 8.12142 -90.5198 10.6242 -1.7602 -0.873731 -1.04578 -1.79694 -0.79541 -23.5853 -1.41624 -1.36239 -3.57266 -1.41625 -1.36239 89.3466 -32.9595 -106.914 37.4928 -2.30388 7.96863 7.78606 -28.7477 -8.43748 -19.1673 -0.494431 -8.12219 -87.9774 -44.2244 80.6478 -17.6447 -7.95729 -41.2017 8.30216 30.1078 -8.84978 20.1478 -4.95907 -27.3631 -7.39176 2.36927 -8.63927 -3.76728 3.01556 2.24888 
-11.2282 94.592 130.559 -179.13 -81.4586 -174.488 -162.827 -24.8488 102.17 -20.0842 30.09 1.73101 79.6224 14.0638 1.33457 26.3063 -4.58097 9.09368 179.1 21.3825 99.4618 -25.7835 -9.13971 0.554187 62.2453 0.219318 -2.84836 20.1344 2.71824 4.72975 -0.893984 7.99922 -90.7132 10.8642 -2.10953 -1.22061 -0.80551 -2.16121 -1.12655 -23.3453 -1.64521 -1.79819 -3.33267 -1.64521 -1.79819 89.7224 -33.0731 -106.161 38.6339 -1.87271 8.47642 7.75711 -27.5051 -7.83917 -17.9029 -0.426428 -8.50969 -88.0516 -46.0973 80.9062 -18.9114 -5.2097 -37.4467 8.7958 31.9593 -9.38064 19.1578 -4.39464 -26.0904 -8.02784 2.78221 -7.01063 -4.6631 3.25368 2.33957 
-12.4814 94.7218 139.224 -172.526 -80.5741 -166.354 -163.65 -23.0596 102.653 -31.5467 27.8548 4.22109 69.1335 6.23169 1.54867 33.7061 -0.122248 8.5657 178.514 19.2989 101.704 -33.243 -8.26979 1.41703 64.1833 -0.825784 -2.49259 17.7127 3.94373 4.14454 -0.785444 7.9158 -90.9537 11.0245 -2.00554 -1.70582 -0.645923 -2.07866 -1.61591 -23.1789 -1.40029 -2.22958 -3.16623 -1.40029 -2.22958 89.6645 -32.4705 -106.489 39.3344 -1.82896 8.16336 7.73223 -26.9014 -7.53923 -16.3935 -0.321043 -9.49706 -88.2005 -47.489 80.9474 -18.9095 0.733035 -32.8639 3.13452 33.4111 -3.11366 14.464 -2.73235 -23.6137 -9.17015 2.92399 -4.15399 -4.66451 3.16787 1.12731 
-13.7437 95.5872 146.215 -173.01 -79.6626 -166.181 -165.611 -12.9048 103.521 -49.9963 28.837 5.552 55.243 -3.45412 -1.71848 19.7094 -6.75319 5.21932 178.402 14.0991 103.141 -34.5155 -8.32073 1.65382 67.8627 -3.84403 -3.36729 18.695 3.39523 4.53063 -0.65555 8.02156 -91.0383 10.8124 -1.78461 -1.89906 -0.858565 -1.86644 -1.8187 -23.3873 -1.13154 -2.34744 -3.37469 -1.13153 -2.34743 89.2376 -32.1322 -107.431 38.8995 -2.39269 5.27486 7.63445 -27.048 -7.68697 -16.6149 -0.246471 -10.166 -88.2942 -47.9693 80.8962 -19.5171 5.57252 -31.5284 -0.973289 37.749 0.162733 5.69051 -0.254384 -23.5325 -8.38389 2.88676 -2.44859 -4.88318 3.04766 0.387954 
-14.3658 96.5454 152.242 -176.507 -79.9321 -170.207 -169.051 -0.731119 101.424 -63.7481 23.7704 5.52781 60.3107 -0.442013 -0.955331 17.234 -8.56166 6.06456 177.729 8.72465 102.504 -32.4145 -8.8993 1.9036 70.2374 -5.741 -3.56563 20.4553 2.67318 4.38367 -0.424615 8.07907 -90.9803 10.7019 -1.29718 -1.83012 -0.969618 -1.37645 -1.77128 -23.4963 -0.687327 -2.13524 -3.48367 -0.687331 -2.13525 89.0599 -31.6387 -107.962 37.5322 -3.62315 1.00145 7.51971 -27.6268 -8.6406 -19.2446 -0.272384 -9.46515 -88.6189 -49.0141 80.6045 -21.5081 7.76994 -25.3258 -2.34247 37.5256 -0.00435455 5.52378 0.487613 -16.363 -7.62808 2.27649 -1.59793 -4.37056 2.3922 0.148269 
-14.5616 97.5159 157.846 -169.01 -80.5678 -164.512 -171.789 9.73961 96.8242 -65.0201 14.084 4.08764 69.8767 5.83579 1.85593 14.1065 -9.77636 4.86513 177.197 3.3923 100.52 -28.7307 -10.9464 1.12447 71.9939 -6.98829 -3.08264 22.0593 2.06273 4.07481 0.0176466 8.05393 -90.7733 10.763 -0.321534 -1.50812 -0.908792 -0.387591 -1.49252 -23.4369 0.146519 -1.53503 -3.42421 0.146524 -1.53503 88.8851 -31.0169 -108.545 34.8707 -4.40849 -3.27356 6.87837 -28.657 -10.222 -20.806 -0.349394 -8.91435 -89.1886 -50.7084 80.0834 -23.2835 7.56898 -13.0834 -3.11915 34.164 -0.00614744 8.08961 0.0634867 -14.5938 -7.76679 1.3573 -1.20971 -3.83431 1.44393 0.320152 
-14.3581 98.3057 163.61 -150.631 -80.1155 -149.117 -173.641 16.6556 90.9951 -54.3994 -0.0145707 2.07822 71.7353 7.04073 2.14976 10.8777 -11.2201 4.0537 176.23 -1.31801 97.1074 -26.3694 -15.0807 -0.769077 73.4395 -7.79984 -2.95535 23.0349 1.85558 3.2458 0.619556 8.03345 -90.4394 10.8106 1.03083 -0.96995 -0.86039 0.987144 -1.01438 -23.3974 1.27467 -0.615292 -3.38473 1.27468 -0.61529 88.7818 -29.6141 -109.329 32.4204 -5.22569 -6.87682 6.17055 -30.207 -11.9452 -23.7947 -0.511119 -7.91954 -88.298 -51.5453 81.5624 -24.3263 8.85765 -0.318401 -4.03966 26.2084 -0.00683088 7.92676 -0.4086 -16.2367 -8.0561 0.733138 1.19881 -3.23214 0.643932 -1.74075 
-14.0022 98.051 169.867 -136.969 -79.2634 -137.086 -175.811 19.9591 87.9279 -36.9324 -1.41004 0.649306 68.0458 5.8874 1.9243 12.4736 -9.3842 2.3531 174.758 -5.17835 94.2411 -25.9689 -18.8776 -1.83397 76.1414 -9.56456 -3.34255 23.1857 1.81466 3.14648 1.09132 8.02898 -90.2872 10.8237 2.04044 -0.761324 -0.845911 2.00495 -0.850424 -23.3938 2.17488 -0.112626 -3.38111 2.17488 -0.112619 88.6642 -27.0506 -110.695 30.4961 -5.57959 -9.94652 4.84608 -30.0941 -14.271 -24.4812 -0.484488 -7.98955 -87.0781 -53.0773 83.6032 -24.1768 8.81843 9.33702 -4.06981 21.0149 -0.00310918 4.96444 -0.207824 -16.6881 -7.62018 0.381793 3.84473 -2.64821 0.0700186 -3.63232 
-13.9451 96.8429 176.953 -131.049 -78.7008 -131.871 -177.079 17.6171 86.1979 -12.6643 3.72537 -0.464921 61.3471 3.49559 -1.20275 16.2474 -8.94894 5.68345 172.586 -9.91132 91.4591 -25.1354 -21.8075 -1.95466 79.0965 -11.675 -3.29074 24.5281 1.23322 3.10512 1.35446 8.02629 -90.2441 10.8315 2.58418 -0.726663 -0.837147 2.5497 -0.839769 -23.393 2.68303 0.0841413 -3.38031 2.68302 0.0841271 89.0241 -25.5767 -110.629 27.4137 -5.56883 -14.1512 4.33381 -31.8953 -15.1312 -24.8377 -0.324894 -9.24247 -86.6701 -54.2117 84.3649 -24.4205 6.17655 15.3953 -3.11262 16.4316 -0.0503193 2.50311 0.231877 -12.9382 -6.96719 0.176573 6.62522 -2.11389 -0.41981 -5.63866 
-14.1112 95.2126 184.604 -129.008 -77.8894 -130.349 -177.923 19.645 84.4354 -7.94118 -1.34101 -1.71571 63.3469 3.48894 -1.64181 17.3038 -9.16272 7.36414 170.119 -15.4805 88.4573 -24.2977 -24.396 -2.10258 81.0291 -13.8904 -4.23867 26.8269 0.108193 3.64576 1.57189 8.07613 -90.1866 10.733 3.04428 -0.650839 -0.934578 3.01268 -0.784313 -23.4984 3.099 0.295072 -3.48571 3.09901 0.295072 89.3224 -25.7673 -109.914 24.7384 -4.45789 -17.7397 3.34286 -33.7944 -15.5244 -25.2375 -0.512485 -8.60329 -86.6903 -55.0333 84.4546 -24.7963 3.52506 18.1966 -1.85811 11.5265 -0.00351985 1.8384 0.37083 -8.14304 -5.88137 -0.15021 6.66312 -2.16547 -0.806864 -5.48452 
-14.5515 94.4955 193.139 -124.556 -76.5952 -126.504 -177.565 20.2764 83.0564 -12.6434 -1.63421 -2.06252 59.4972 0.166225 -1.80941 12.3691 -11.1135 5.41814 167.64 -20.1699 85.009 -24.0024 -27.217 -2.94463 77.6024 -12.2982 -5.12955 33.0863 -2.68662 4.58061 1.70375 8.02371 -90.0243 10.8362 3.38119 -0.365201 -0.830428 3.36184 -0.513841 -23.4002 3.33445 0.669032 -3.38751 3.33445 0.669026 88.7398 -26.2747 -110.896 25.1413 -3.51364 -18.9818 2.58136 -32.9868 -15.5064 -25.7778 -0.630317 -7.75269 -85.6416 -55.6794 86.0322 -25.3482 2.74627 19.9438 -1.29922 7.55578 0.00451809 -0.952987 0.346174 -8.38365 -4.91438 0.0171182 5.07132 -2.98905 -0.495933 -4.59602 
-15.4471 94.6507 202.226 -120.529 -75.7539 -124.065 -175.544 21.5806 81.4795 -24.0849 2.39846 -3.41457 60.9659 -0.469914 -0.490458 7.16117 -12.8842 3.16039 166.606 -20.3562 82.4354 -29.8578 -28.2446 -5.67097 69.8714 -6.27816 -4.26811 39.8102 -5.62443 6.90547 1.7848 7.84986 -89.6833 11.1753 3.69952 0.267607 -0.490419 3.70772 0.104292 -23.0635 3.44786 1.3684 -3.0508 3.44786 1.3684 88.4551 -27.1992 -111.051 28.2872 -4.37468 -18.0057 3.11636 -31.3466 -14.9061 -26.7789 -0.588011 -7.5777 -85.0051 -54.4789 86.7905 -26.5346 1.70487 18.8231 -1.28421 5.87383 -0.00469364 -1.49512 0.227433 -10.7398 -5.02552 0.0119772 2.15578 -4.44025 -0.164784 -4.18932 
-16.0741 95.5697 210.676 -122.291 -75.1219 -127.768 -174.591 17.1512 79.11 -28.357 2.10649 -4.3228 65.8919 2.79526 -0.169193 7.22851 -12.3511 2.34466 166.188 -14.5673 79.0473 -44.9824 -30.2557 -7.87453 60.2682 0.714086 -0.867307 32.1304 -2.48279 5.7177 1.63837 7.85333 -89.4178 11.1579 3.5315 0.814213 -0.50844 3.56392 0.657799 -23.0733 3.12342 1.83881 -3.06063 3.12341 1.8388 89.1059 -26.7806 -109.905 32.1347 -6.88987 -16.7654 4.52492 -31.7697 -14.3555 -25.2337 -0.367647 -8.93254 -85.9168 -54.6722 85.5089 -26.224 2.92206 13.9643 -1.88109 3.93174 -0.00430904 1.46963 -0.106423 -11.7968 -4.65318 -0.039689 1.03164 -5.26335 -0.0838668 -3.88981 
-16.6466 96.3029 217.633 -124.282 -74.8671 -130.364 -175.162 11.9478 77.9055 -28.8579 2.38804 -4.12783 69.8535 5.52746 1.00265 9.57645 -11.4397 3.10986 169.233 -5.90603 79.1748 -59.1719 -30.4539 -9.01653 57.0214 2.65451 0.569416 23.8969 1.24268 4.13817 1.36861 7.92051 -89.3584 11.0213 3.02187 0.987243 -0.646386 3.06239 0.853168 -23.2005 2.58542 1.85023 -3.18787 2.58542 1.85022 88.9076 -26.9835 -110.223 35.3595 -7.55778 -14.4309 4.92685 -33.2304 -13.9924 -24.5045 -0.477109 -8.73193 -86.9035 -55.5178 84.2221 -23.2037 5.67642 2.74713 -2.60244 3.56927 -0.00217188 5.00869 -0.347199 -11.7429 -5.03837 0.255446 0.874607 -4.97351 0.213534 -3.44855 
